<?xml version="1.0" encoding="utf-8"?>
<!-- Generator: Adobe Illustrator 23.0.3, SVG Export Plug-In . SVG Version: 6.00 Build 0)  -->
<svg version="1.1" id="Layer_1" xmlns="http://www.w3.org/2000/svg" xmlns:xlink="http://www.w3.org/1999/xlink" x="0px" y="0px"
	 viewBox="0 0 207.8 198.3" style="enable-background:new 0 0 207.8 198.3;" xml:space="preserve">
<style type="text/css">
	.st0{fill:#19408C;}
	.st2{fill:#F3F3F3;}
	.st3{fill:#484848;}
	.st4{fill:#DBDBDB;}
</style>
<circle class="st0" cx="103.9" cy="99.2" r="99.2"/>
<path class="st1" d="M161.4,346.3v196c0,1-0.1,2-0.4,2.9c-1.3,5.1-5.9,8.9-11.4,8.9H-163c-6.5,0-11.8-5.3-11.8-11.8v-196
	c0-6.5,5.3-11.8,11.8-11.8h312.7C156.2,334.5,161.4,339.8,161.4,346.3z"/>
<g>
	<g>
		<path class="st2" d="M29.4,166.2c-2.1,0-4-1.4-4.6-3.4L2.5,92.7c-0.4-1.2-0.3-2.5,0.3-3.7c0.6-1.1,1.6-2,2.8-2.4l170.8-54.4
			c0.5-0.2,1-0.2,1.5-0.2c2.1,0,4,1.4,4.6,3.4l22.3,70.1c0.4,1.2,0.3,2.5-0.3,3.7s-1.6,2-2.8,2.4L30.9,166
			C30.4,166.2,29.9,166.2,29.4,166.2z"/>
		<path class="st3" d="M177.9,32.6L177.9,32.6c1.9,0,3.6,1.2,4.1,3l22.3,70.1c0.4,1.1,0.3,2.3-0.3,3.3c-0.5,1-1.4,1.8-2.5,2.1
			L30.7,165.5c-0.4,0.1-0.9,0.2-1.3,0.2c-1.9,0-3.6-1.2-4.1-3L3,92.6c-0.4-1.1-0.3-2.3,0.3-3.3c0.5-1,1.4-1.8,2.5-2.1l170.8-54.4
			C177,32.7,177.5,32.6,177.9,32.6 M177.9,31.6c-0.5,0-1.1,0.1-1.6,0.3L5.5,86.2c-2.8,0.9-4.4,3.9-3.5,6.7L24.3,163
			c0.7,2.3,2.8,3.7,5.1,3.7c0.5,0,1.1-0.1,1.6-0.3l170.8-54.4c2.8-0.9,4.4-3.9,3.5-6.7L183,35.3C182.3,33,180.2,31.6,177.9,31.6
			L177.9,31.6z"/>
	</g>
	
		<rect x="11.4" y="89.4" transform="matrix(0.9529 -0.3033 0.3033 0.9529 -27.5336 10.7924)" class="st4" width="19.2" height="9.2"/>
	
		<rect x="31.5" y="73.6" transform="matrix(0.9529 -0.3033 0.3033 0.9529 -20.4122 25.0878)" class="st4" width="78.2" height="9.2"/>
	
		<rect x="109.9" y="50.1" transform="matrix(0.9529 -0.3033 0.3033 0.9529 -9.7779 46.4349)" class="st4" width="69.4" height="9.2"/>
	
		<rect x="14.8" y="101.5" transform="matrix(0.9529 -0.3033 0.3033 0.9529 -29.6324 15.6232)" class="st4" width="41.3" height="3.5"/>
	
		<rect x="17.7" y="112.1" transform="matrix(0.9529 -0.3033 0.3033 0.9529 -33.2548 13.5138)" class="st4" width="18.5" height="3.5"/>
	
		<rect x="37.3" y="105.8" transform="matrix(0.9529 -0.3033 0.3033 0.9529 -30.4303 19.1837)" class="st4" width="18.5" height="3.5"/>
	<rect x="57" y="99.6" transform="matrix(0.9529 -0.3033 0.3033 0.9529 -27.6058 24.8535)" class="st4" width="18.5" height="3.5"/>
	
		<rect x="76.4" y="93.4" transform="matrix(0.9529 -0.3033 0.3033 0.9529 -24.8196 30.4464)" class="st4" width="18.5" height="3.5"/>
	
		<rect x="96.1" y="87.1" transform="matrix(0.9529 -0.3033 0.3033 0.9529 -21.9951 36.1163)" class="st4" width="18.5" height="3.5"/>
	
		<rect x="117.8" y="72.4" transform="matrix(0.9529 -0.3033 0.3033 0.9529 -15.3355 49.4846)" class="st4" width="67.8" height="3.5"/>
	
		<rect x="54.7" y="74.7" transform="matrix(0.9529 -0.3033 0.3033 0.9529 -17.5339 39.9096)" class="st4" width="130" height="3.5"/>
	
		<rect x="19.4" y="115.8" transform="matrix(0.9529 -0.3033 0.3033 0.9529 -33.753 17.6759)" class="st4" width="41.3" height="3.5"/>
	<rect x="59.3" y="89" transform="matrix(0.9529 -0.3033 0.3033 0.9529 -21.6544 41.9622)" class="st4" width="130" height="3.5"/>
	
		<rect x="150.8" y="90.7" transform="matrix(-0.9529 0.3033 -0.3033 -0.9529 362.796 128.6234)" class="st4" width="41.3" height="3.5"/>
	
		<rect x="22.2" y="117.6" transform="matrix(-0.9529 0.3033 -0.3033 -0.9529 206.4017 206.533)" class="st4" width="130" height="3.5"/>
	<g id="Layer_x0020_1_6_">
		<g>
			<path class="st3" d="M110.4,120.2l3.9,12.2l-1.8,0.6l-3.9-12.2L110.4,120.2z M106.5,121.4l3.9,12.2l-1.2,0.4l-3.9-12.2
				L106.5,121.4z M104.7,122l3.9,12.2l-2,0.6l-3.9-12.2L104.7,122z M100.8,123.3l3.9,12.2l-1.4,0.5l-3.9-12.2L100.8,123.3z
				 M98.8,123.9l3.9,12.2l-0.6,0.2l-3.9-12.2L98.8,123.9z M97,124.5l3.9,12.2l-0.8,0.3l-3.9-12.2L97,124.5z M95,125.1l3.9,12.2
				l-2.6,0.8L92.3,126L95,125.1z M91.7,126.2l3.9,12.2l-0.6,0.2l-3.9-12.2L91.7,126.2z M89.9,126.7l3.9,12.2l-0.8,0.3L89.1,127
				L89.9,126.7z M88.5,127.2l3.9,12.2l-0.6,0.2l-3.9-12.2L88.5,127.2z M85.2,128.2l3.9,12.2l-1.2,0.4L84,128.6L85.2,128.2z
				 M83.4,128.8l3.9,12.2l-0.6,0.2L82.8,129L83.4,128.8z M82.2,129.2l3.9,12.2l-2.6,0.8L79.5,130L82.2,129.2z M77.5,130.7l3.9,12.2
				l-0.6,0.2l-3.9-12.2L77.5,130.7z M75.7,131.3l3.9,12.2l-1.4,0.5l-3.9-12.2L75.7,131.3z M73.7,131.9l3.9,12.2l-0.6,0.2L73,132.1
				L73.7,131.9z M70.4,132.9l3.9,12.2l-0.6,0.2l-3.9-12.2L70.4,132.9z M68.6,133.5l3.9,12.2l-0.6,0.2L68,133.7L68.6,133.5z
				 M67.4,133.9l3.9,12.2l-1.4,0.5l-3.9-12.2L67.4,133.9z M63.5,135.1l3.9,12.2l-0.8,0.3l-3.9-12.2L63.5,135.1z M61.5,135.8
				l3.9,12.2l-2.6,0.8l-3.9-12.2L61.5,135.8z M57.6,137l3.9,12.2l-0.6,0.2L57,137.2L57.6,137z M56.4,137.4l3.9,12.2l-0.8,0.3
				l-3.9-12.2L56.4,137.4z M54.4,138l3.9,12.2l-0.6,0.2l-3.9-12.2L54.4,138z M53.2,138.4l3.9,12.2l-1.4,0.5l-3.9-12.2L53.2,138.4z
				 M49.3,139.7l3.9,12.2l-0.6,0.2l-3.9-12.2L49.3,139.7z M47.3,140.3l3.9,12.2l-0.6,0.2l-3.9-12.2L47.3,140.3z M46.1,140.7
				l3.9,12.2l-0.6,0.2l-3.9-12.2L46.1,140.7z M42.8,141.7l3.9,12.2l-1.2,0.4l-3.9-12.2L42.8,141.7z M40.2,142.6l3.9,12.2l-0.6,0.2
				l-3.9-12.2L40.2,142.6z M38.4,143.1l3.9,12.2l-2.6,0.8L35.7,144L38.4,143.1z M35.1,144.2l3.9,12.2l-0.6,0.2l-3.9-12.2L35.1,144.2
				z M33.9,144.6l3.9,12.2l-2,0.6l-3.9-12.2L33.9,144.6z M31.3,145.4l3.9,12.2l-0.6,0.2l-3.9-12.2L31.3,145.4z M30,145.8l3.9,12.2
				l-2.6,0.8l-3.9-12.2L30,145.8z"/>
		</g>
	</g>
	<g id="Layer_x0020_1_2_">
		<g>
			<path class="st3" d="M193.5,93.8l3.9,12.2l-1.8,0.6l-3.9-12.2L193.5,93.8z M189.7,95l3.9,12.2l-1.2,0.4l-3.9-12.2L189.7,95z
				 M187.9,95.5l3.9,12.2l-2,0.6L186,96.2L187.9,95.5z M184.2,96.7l3.9,12.2l-1.4,0.4l-3.9-12.2L184.2,96.7z M182.2,97.4l3.9,12.2
				l-0.6,0.2l-3.9-12.2L182.2,97.4z M180.4,97.9l3.9,12.2l-0.8,0.3l-3.9-12.2L180.4,97.9z M178.5,98.5l3.9,12.2l-2.6,0.8l-3.9-12.2
				L178.5,98.5z M175.3,99.6l3.9,12.2l-0.6,0.2l-3.9-12.2L175.3,99.6z M173.5,100.1l3.9,12.2l-0.8,0.3l-3.9-12.2L173.5,100.1z
				 M172.1,100.6l3.9,12.2l-0.6,0.2l-3.9-12.2L172.1,100.6z M169,101.6l3.9,12.2l-1.2,0.4l-3.9-12.2L169,101.6z M167.2,102.1
				l3.9,12.2l-0.6,0.2l-3.9-12.2L167.2,102.1z M166,102.5l3.9,12.2l-2.6,0.8l-3.9-12.2L166,102.5z M161.5,104l3.9,12.2l-0.6,0.2
				l-3.9-12.2L161.5,104z M159.7,104.5l3.9,12.2l-1.4,0.4l-3.9-12.2L159.7,104.5z M157.7,105.2l3.9,12.2l-0.6,0.2l-3.9-12.2
				L157.7,105.2z M154.6,106.2l3.9,12.2l-0.6,0.2l-3.9-12.2L154.6,106.2z M152.8,106.7l3.9,12.2l-0.6,0.2l-3.9-12.2L152.8,106.7z
				 M151.6,107.1l3.9,12.2l-1.4,0.4l-3.9-12.2L151.6,107.1z M147.8,108.3l3.9,12.2l-0.8,0.3l-3.9-12.2L147.8,108.3z M145.9,108.9
				l3.9,12.2l-2.6,0.8l-3.9-12.2L145.9,108.9z M142.1,110.1l3.9,12.2l-0.6,0.2l-3.9-12.2L142.1,110.1z M140.9,110.5l3.9,12.2
				L144,123l-3.9-12.2L140.9,110.5z M138.9,111.1l3.9,12.2l-0.6,0.2l-3.9-12.2L138.9,111.1z M137.8,111.5l3.9,12.2l-1.4,0.4
				l-3.9-12.2L137.8,111.5z M134,112.7l3.9,12.2l-0.6,0.2l-3.9-12.2L134,112.7z M132,113.3l3.9,12.2l-0.6,0.2l-3.9-12.2L132,113.3z
				 M130.8,113.7l3.9,12.2l-0.6,0.2l-3.9-12.2L130.8,113.7z M127.7,114.7l3.9,12.2l-1.2,0.4l-3.9-12.2L127.7,114.7z M125.1,115.5
				l3.9,12.2l-0.6,0.2l-3.9-12.2L125.1,115.5z M123.3,116.1l3.9,12.2l-2.6,0.8l-3.9-12.2L123.3,116.1z M120.2,117.1l3.9,12.2
				l-0.6,0.2l-3.9-12.2L120.2,117.1z M119,117.5l3.9,12.2l-2,0.6l-3.9-12.2L119,117.5z M116.4,118.3l3.9,12.2l-0.6,0.2l-3.9-12.2
				L116.4,118.3z M115.2,118.7l3.9,12.2l-2.6,0.8l-3.9-12.2L115.2,118.7z"/>
		</g>
	</g>
</g>
</svg>
