<?xml version="1.0" encoding="utf-8"?>
<!-- Generator: Adobe Illustrator 23.0.3, SVG Export Plug-In . SVG Version: 6.00 Build 0)  -->
<svg version="1.1" id="Layer_1" xmlns="http://www.w3.org/2000/svg" xmlns:xlink="http://www.w3.org/1999/xlink" x="0px" y="0px"
	 viewBox="0 0 207.8 198.3" style="enable-background:new 0 0 207.8 198.3;" xml:space="preserve">
<style type="text/css">
	.st0-credit{fill:#FFC300;}
	.st1-credit{fill:#19408C;}
	.st2-credit{fill:#355EA0;}
	.st3-credit{fill:#0F2E60;}
	.st4-credit{fill:#F9A65C;}
	.st5-credit{fill:#FFFFFF;}
</style>
<g>
	<circle class="st0-credit" cx="103.9" cy="99.2" r="99.2"/>
	<g>
		<path class="st1-credit" d="M184,28.2l23.6,107.2c0.1,0.5,0.2,1.1,0.2,1.6c-0.1,3-2.2,5.6-5.2,6.3l-171,37.7c-3.6,0.8-7.1-1.5-7.9-5
			L0.2,68.7c-0.8-3.6,1.5-7.1,5-7.9l171-37.7C179.7,22.4,183.2,24.6,184,28.2z"/>
		<path class="st2-credit" d="M184,28.2l19.9,90.3c-11.7,1.1-23.8-0.1-34.2-5.6c-11.5-6-20.3-17.9-20.5-30.8c-2.7,18.9-21.9,32.6-40.9,32.8
			c-19,0.2-36.9-10.8-48.9-25.6C53.1,81.5,43,67.1,39,53.4l137.2-30.2C179.7,22.4,183.2,24.6,184,28.2z"/>
		<path class="st3-credit" d="M207.8,137c-0.1,3-2.2,5.6-5.2,6.3l-171,37.7c-3.6,0.8-7.1-1.5-7.9-5l-3-13.4c1.5,1.4,3.2,2.7,5,3.7
			c8.1,4.4,17.9,4.6,26.9,2.6c9-2,17.3-6,25.8-9.7c27-11.7,55.6-19.6,84.8-23.7C177.9,133.3,193.9,132.7,207.8,137z"/>
		<g>
			<g>
				<path class="st4-credit" d="M47.8,96.7l-21.4,4.7c-1.7,0.4-3.3-0.7-3.7-2.4L18,77.6c-0.4-1.7,0.7-3.3,2.4-3.7l21.4-4.7
					c1.7-0.4,3.3,0.7,3.7,2.4L50.2,93C50.6,94.6,49.5,96.3,47.8,96.7z"/>
			</g>
			<g>
				<g>
					<path class="st0-credit" d="M47,95.6l-20.2,4.5c-1.4,0.3-2.7-0.6-3-1.9l-4.5-20.2c-0.3-1.4,0.6-2.7,1.9-3l20.2-4.5
						c1.4-0.3,2.7,0.6,3,1.9l4.5,20.2C49.2,94,48.3,95.3,47,95.6z"/>
				</g>
				<g>
					<path class="st4-credit" d="M40.5,93.1l-9,2c-1.5,0.3-2.9-0.6-3.2-2.1l-2.7-12.2c-0.3-1.5,0.6-2.9,2.1-3.2l9-2
						c1.5-0.3,2.9,0.6,3.2,2.1l2.7,12.2C42.9,91.3,42,92.7,40.5,93.1z M28.2,79.8c-0.2,0-0.3,0.2-0.3,0.4l2.7,12.2
						c0,0.2,0.2,0.3,0.4,0.3l9-2c0.2,0,0.3-0.2,0.3-0.4l-2.7-12.2c0-0.2-0.2-0.3-0.4-0.3L28.2,79.8z"/>
				</g>
				<g>
					<g>
						
							<rect x="20.5" y="81.7" transform="matrix(0.9766 -0.2152 0.2152 0.9766 -17.2874 7.077)" class="st4-credit" width="6.7" height="2.4"/>
					</g>
					<g>
						
							<rect x="21.5" y="86.1" transform="matrix(0.9766 -0.2152 0.2152 0.9766 -18.2078 7.3874)" class="st4-credit" width="6.7" height="2.4"/>
					</g>
					<g>
						
							<rect x="22.4" y="90.5" transform="matrix(0.9766 -0.2152 0.2152 0.9766 -19.1281 7.6978)" class="st4-credit" width="6.7" height="2.4"/>
					</g>
				</g>
				<g>
					<g>
						
							<rect x="39" y="77.7" transform="matrix(0.9766 -0.2152 0.2152 0.9766 -15.9734 10.973)" class="st4-credit" width="6.7" height="2.4"/>
					</g>
					<g>
						
							<rect x="40" y="82" transform="matrix(0.9766 -0.2152 0.2152 0.9766 -16.8937 11.2834)" class="st4-credit" width="6.7" height="2.4"/>
					</g>
					<g>
						
							<rect x="41" y="86.4" transform="matrix(0.9766 -0.2152 0.2152 0.9766 -17.814 11.5938)" class="st4-credit" width="6.7" height="2.4"/>
					</g>
				</g>
			</g>
		</g>
		<g>
			<path class="st5-credit" d="M29.7,114.1l1.7,7.6l-2,0.4l-1.3-6l-1.5,0.3l-0.4-1.6L29.7,114.1z"/>
			<path class="st5-credit" d="M39.3,117.4c0.3,1.5-0.7,2.8-2.6,3.2c-1.1,0.2-2.3,0.1-3.2-0.3l0.5-1.7c0.7,0.5,1.5,0.7,2.3,0.5
				c0.8-0.2,1.2-0.6,1.1-1.2c-0.1-0.6-0.7-0.8-1.5-0.6l-1.3,0.3l-0.2-1.1l1.4-2.1l-2.9,0.6l-0.3-1.5l5.3-1.2l0.3,1.2l-1.6,2.4l0.4,0
				C38,115.7,39.1,116.3,39.3,117.4z"/>
			<path class="st5-credit" d="M45.9,114.5c0.5,2.5-0.2,4.1-2.1,4.5c-1.9,0.4-3.3-0.7-3.9-3.2c-0.5-2.5,0.2-4.1,2.1-4.5
				C43.9,110.9,45.3,112,45.9,114.5z M41.8,115.4c0.4,1.7,0.9,2.4,1.6,2.2c0.8-0.2,0.9-1,0.5-2.7c-0.4-1.8-0.9-2.4-1.6-2.2
				C41.5,112.9,41.4,113.7,41.8,115.4z"/>
			<path class="st5-credit" d="M51.9,109.2l0.3,1.4l-1.5,6.9l-2.1,0.5l1.5-6.7l-2.1,0.5l0.2,1.1l-1.8,0.4l-0.6-2.7L51.9,109.2z"/>
			<path class="st5-credit" d="M68.7,112c1.2-0.3,1.6-1.2,1.3-2.4c-0.2,0.6-0.8,1-1.6,1.2c-1.5,0.3-2.6-0.5-3-2c-0.4-1.6,0.5-2.9,2.2-3.2
				c2-0.4,3.6,0.7,4.1,3.1c0.5,2.4-0.5,4.3-2.6,4.8c-0.8,0.2-1.8,0.1-2.6-0.1l0.4-1.5C67.6,112.1,68.2,112.1,68.7,112z M67.3,108.5
				c0.1,0.7,0.6,1,1.3,0.8c0.7-0.2,1-0.7,0.9-1.3c-0.1-0.6-0.6-1-1.3-0.8C67.4,107.3,67.1,107.8,67.3,108.5z"/>
			<path class="st5-credit" d="M75.8,103.9l1.7,7.6l-2,0.4l-1.3-6l-1.5,0.3l-0.4-1.6L75.8,103.9z"/>
			<path class="st5-credit" d="M82.5,102.4l1.7,7.6l-2,0.4l-1.3-6l-1.5,0.3l-0.4-1.6L82.5,102.4z"/>
			<path class="st5-credit" d="M92.2,105.8c0.3,1.5-0.7,2.8-2.6,3.2c-1.1,0.2-2.3,0.1-3.2-0.3l0.5-1.7c0.7,0.5,1.5,0.7,2.3,0.5
				c0.8-0.2,1.2-0.6,1.1-1.2c-0.1-0.6-0.7-0.8-1.5-0.6l-1.3,0.3l-0.2-1.1l1.4-2.1l-2.9,0.6l-0.3-1.5l5.3-1.2l0.3,1.2l-1.6,2.4l0.4,0
				C90.9,104.1,91.9,104.6,92.2,105.8z"/>
			<path class="st5-credit" d="M111.2,100.1c0.5,2.5-0.2,4.1-2.1,4.5c-1.9,0.4-3.3-0.7-3.9-3.2c-0.5-2.5,0.2-4.1,2.1-4.5
				C109.3,96.5,110.7,97.6,111.2,100.1z M107.2,101c0.4,1.7,0.9,2.4,1.6,2.2c0.8-0.2,0.9-1,0.5-2.7c-0.4-1.8-0.9-2.4-1.6-2.2
				C106.9,98.5,106.8,99.3,107.2,101z"/>
			<path class="st5-credit" d="M114.7,98.2c1.8-0.4,3.2,0.3,3.5,1.7c0.4,1.6-0.6,2.9-2.5,3.3c-1,0.2-2.3,0.1-3.2-0.3l0.5-1.7
				c0.7,0.5,1.5,0.7,2.2,0.5c0.8-0.2,1.1-0.6,1-1.2c-0.1-0.6-0.6-0.8-1.4-0.6c-0.4,0.1-1.7,0.4-2.1,0.5l-1-4.4l5.1-1.1l0.4,1.6
				l-3.3,0.7l0.3,1.2C114.2,98.4,114.6,98.3,114.7,98.2z"/>
			<path class="st5-credit" d="M121.6,100.4c1.2-0.3,1.6-1.2,1.3-2.4c-0.2,0.6-0.8,1-1.6,1.2c-1.5,0.3-2.6-0.5-3-2
				c-0.4-1.6,0.5-2.9,2.2-3.2c2-0.4,3.6,0.7,4.1,3.1c0.5,2.4-0.5,4.3-2.6,4.8c-0.8,0.2-1.8,0.1-2.6-0.1l0.4-1.5
				C120.4,100.4,121,100.5,121.6,100.4z M120.1,96.8c0.1,0.7,0.6,1,1.3,0.8c0.7-0.2,1-0.7,0.9-1.3c-0.1-0.6-0.6-1-1.3-0.8
				C120.3,95.7,120,96.2,120.1,96.8z"/>
			<path class="st5-credit" d="M128.7,94.6c-0.1-0.4-0.5-0.6-1-0.5c-0.6,0.1-1.3,0.7-1.9,1.4l-1.1-1.3c0.8-0.9,1.8-1.6,2.9-1.9
				c1.5-0.3,2.8,0.2,3.1,1.4c0.2,0.8-0.3,1.8-0.9,2.9l-1.2,1.9l3.3-0.7l0.4,1.6l-5.8,1.3l-0.3-1.3l2.1-3.5
				C128.6,95.5,128.8,94.9,128.7,94.6z"/>
			<path class="st5-credit" d="M147.9,90.4c-0.1-0.4-0.5-0.6-1-0.5c-0.6,0.1-1.3,0.7-1.9,1.4l-1.1-1.3c0.8-0.9,1.8-1.6,2.9-1.9
				c1.5-0.3,2.8,0.2,3.1,1.4c0.2,0.8-0.3,1.8-0.9,2.9l-1.2,1.9l3.3-0.7l0.4,1.6l-5.8,1.3l-0.3-1.3l2.1-3.5
				C147.8,91.2,148,90.7,147.9,90.4z"/>
			<path class="st5-credit" d="M156.7,86.1l0.3,1.4l-1.5,6.9l-2.1,0.5l1.5-6.7l-2.1,0.5l0.2,1.1l-1.8,0.4l-0.6-2.7L156.7,86.1z"/>
			<path class="st5-credit" d="M161.3,85.1l1.7,7.6l-2,0.4l-1.3-6l-1.5,0.3l-0.4-1.6L161.3,85.1z"/>
			<path class="st5-credit" d="M168.1,83.6l1.7,7.6l-2,0.4l-1.3-6L165,86l-0.4-1.6L168.1,83.6z"/>
		</g>
		<g>
			<g>
				<path class="st5-credit" d="M33.2,135.9l1.1,4.9l-1.3,0.3l-0.9-3.9l-0.9,0.2l-0.2-1.1L33.2,135.9z"/>
				<path class="st5-credit" d="M37.5,134.9l1.1,4.9l-1.3,0.3l-0.9-3.9l-0.9,0.2l-0.2-1.1L37.5,134.9z"/>
				<path class="st5-credit" d="M41.9,133.2l-0.9,6.9l-1.1,0.2l0.8-6.9L41.9,133.2z"/>
				<path class="st5-credit" d="M44.4,134.9c-0.1-0.3-0.3-0.4-0.7-0.3c-0.4,0.1-0.9,0.4-1.2,0.9l-0.7-0.8c0.5-0.6,1.2-1,1.9-1.2
					c1-0.2,1.8,0.1,2,0.9c0.1,0.5-0.2,1.2-0.6,1.8l-0.8,1.2l2.1-0.5l0.2,1l-3.7,0.8l-0.2-0.8l1.4-2.2
					C44.3,135.5,44.4,135.1,44.4,134.9z"/>
				<path class="st5-credit" d="M50.5,135.6c0.2,0.9-0.4,1.8-1.6,2c-0.7,0.2-1.5,0.1-2.1-0.2l0.3-1.1c0.5,0.3,1,0.4,1.5,0.3
					c0.5-0.1,0.8-0.4,0.7-0.8c-0.1-0.4-0.4-0.5-1-0.4l-0.8,0.2l-0.2-0.7l0.9-1.4l-1.9,0.4l-0.2-1l3.4-0.8l0.2,0.7l-1.1,1.5l0.3,0
					C49.7,134.5,50.4,134.8,50.5,135.6z"/>
			</g>
			<g>
				<path class="st5-credit" d="M30.5,131.7l0.8,1.4l0.2-1.6l0.5-0.1l-0.3,2.2l-0.6,0.1l-1.2-1.9L30.5,131.7z"/>
				<path class="st5-credit" d="M33.9,132.7l-0.9,0.2l-0.1,0.4l-0.5,0.1l0.4-2.2l0.5-0.1l1.3,1.9l-0.6,0.1L33.9,132.7z M33.6,132.3
					l-0.4-0.7l-0.1,0.8L33.6,132.3z"/>
				<path class="st5-credit" d="M34.9,130.7l0.4,1.6l0.9-0.2l0.1,0.5l-1.4,0.3l-0.5-2.1L34.9,130.7z"/>
				<path class="st5-credit" d="M36.6,130.3l0.5,2.1l-0.5,0.1l-0.5-2.1L36.6,130.3z"/>
				<path class="st5-credit" d="M39.2,130.8c0.1,0.6-0.2,1.1-0.9,1.3l-0.9,0.2l-0.5-2.1l0.9-0.2C38.5,129.9,39,130.2,39.2,130.8z M38.6,131
					c-0.1-0.4-0.4-0.5-0.7-0.5l-0.3,0.1l0.3,1.2l0.4-0.1C38.5,131.6,38.7,131.3,38.6,131z"/>
				<path class="st5-credit" d="M41.4,129.3l0.1,0.4l-1,0.2l0.1,0.5l0.9-0.2l0.1,0.4l-0.9,0.2l0.2,0.7l-0.5,0.1l-0.5-2.1L41.4,129.3z"/>
				<path class="st5-credit" d="M43.3,131l-0.4-0.5l0,0l-0.4,0.1l0.1,0.6l-0.5,0.1l-0.5-2.1l0.9-0.2c0.5-0.1,0.9,0.1,1,0.5
					c0.1,0.3,0,0.6-0.2,0.7l0.6,0.6L43.3,131z M42.4,130.2l0.4-0.1c0.2,0,0.3-0.2,0.3-0.4c0-0.2-0.2-0.3-0.4-0.2l-0.4,0.1
					L42.4,130.2z"/>
				<path class="st5-credit" d="M46.1,129.3c0.1,0.6-0.2,1.2-0.9,1.3c-0.6,0.1-1.2-0.2-1.3-0.8c-0.1-0.6,0.2-1.1,0.9-1.3
					C45.4,128.4,45.9,128.7,46.1,129.3z M44.4,129.7c0.1,0.3,0.4,0.5,0.7,0.5c0.3-0.1,0.5-0.4,0.4-0.7c-0.1-0.3-0.4-0.5-0.7-0.5
					C44.5,129,44.3,129.4,44.4,129.7z"/>
				<path class="st5-credit" d="M46.7,128.1l0.8,1.1l0.3-1.3l0.6-0.1l0.5,2.1l-0.5,0.1l-0.3-1.3l-0.2,1.2l-0.4,0.1l-0.7-1l0.3,1.3l-0.5,0.1
					l-0.5-2.1L46.7,128.1z"/>
			</g>
		</g>
		<g>
			<g>
				<path class="st5-credit" d="M174.5,134.5c-4,0.9-7.9-1.6-8.8-5.6c-0.9-4,1.6-7.9,5.6-8.8c4-0.9,7.9,1.6,8.8,5.6
					C181,129.7,178.5,133.6,174.5,134.5z M171.6,121.3c-3.3,0.7-5.4,4-4.7,7.4c0.7,3.3,4,5.4,7.4,4.7s5.4-4,4.7-7.4
					C178.2,122.7,174.9,120.5,171.6,121.3z"/>
			</g>
			<g>
				<path class="st5-credit" d="M183.6,132.5c-4,0.9-7.9-1.6-8.8-5.6c-0.9-4,1.6-7.9,5.6-8.8c4-0.9,7.9,1.6,8.8,5.6
					C190.1,127.7,187.6,131.6,183.6,132.5z M180.7,119.3c-3.3,0.7-5.4,4-4.7,7.4c0.7,3.3,4,5.4,7.4,4.7c3.3-0.7,5.4-4,4.7-7.4
					C187.4,120.6,184.1,118.5,180.7,119.3z"/>
			</g>
		</g>
		
			<rect x="34.5" y="144.7" transform="matrix(0.9766 -0.2152 0.2152 0.9766 -29.8901 20.3933)" class="st5-credit" width="88.5" height="5.5"/>
	</g>
</g>
</svg>
